<svg version="1.2" xmlns="http://www.w3.org/2000/svg" viewBox="0 0 1021 1280" width="1021" height="1280">
	<title>logo</title>
	<style>
		.s0 { fill: #ffffff } 
	</style>
	<g>
		<rect width="1021" height="1280" id="単色塗りつぶし 1" style="fill: #0f6a09"/>
		<path class="s0" d="m517.4 249.1c-100.1 137-182.4 249.8-183.1 250.7-1 1.3-1.2-49.9-1.3-240.6 0-133.2-0.2-242.2-0.5-242.2-0.2 0-43.8 5.2-96.7 11.5-145.5 17.5-220.7 26.4-226.8 27.1-3 0.3-6.3 0.8-7.2 1-1.7 0.5-1.8 30.2-1.8 606 0 584.5 0.1 605.4 1.8 605.4 1 0 71.1-8.3 155.8-18.4 84.6-10.2 158.7-19 164.6-19.7l10.8-1.3 0.2-245.5 0.3-245.5 182.5 271.2 182.5 271.1 6.9 0.1c5.6 0 10.5-1.1 26.5-5.9 18.4-5.6 41.1-12.4 129.9-39.2 20.2-6.1 50.9-15.3 68.2-20.5 17.3-5.3 43.4-13.1 58-17.5 14.6-4.4 28-8.5 29.8-9l3.2-1.1v-10.4-10.4l-190.6-272.2c-104.9-149.7-190.7-272.7-190.8-273.4-0.1-0.7 85.7-116 190.7-256.3l190.7-255.1v-10.7-10.8l-34.3-9.7c-18.8-5.3-63-17.9-98.2-27.8-35.2-10-89.3-25.3-120.2-34.1-46.3-13.1-57.3-15.9-62.6-15.9h-6.5z"/>
	</g>
</svg>