<svg version="1.2" xmlns="http://www.w3.org/2000/svg" viewBox="0 0 750 260" width="750" height="260">
	<title>新規プロジェクト</title>
	<style>
		.s0 { fill: #444444 } 
	</style>
	<path id="Create" class="s0" aria-label="Create"  d="m10.9 48.3c-4.8 13.5 0.7 23 14.2 23 11.4 0 21.8-6.5 27.8-16.7h-13.6c-2.8 3.3-6.4 5.1-10.1 5.1-5.8 0-8-4.4-5.5-11.4 2.4-6.9 7.8-11.3 13.6-11.3 3.7 0 6 1.9 6.4 5.2h13.5c1.5-10.2-4.3-16.8-15.6-16.8-13.6 0-25.8 9.5-30.7 22.9zm54.5 22.7l5.9-16.2c2-5.1 5.4-6.6 10.4-6.6h3.5l4.8-13.4c-4.8 0-9.9 2.8-14 6.8l2.3-6.5h-12.5l-13 35.9zm41.6-26.4c2.9 0 4.8 1.7 3.6 5.3h-11.2c1.7-3.5 4.5-5.3 7.6-5.3zm12.4 14h-13.3c-1.2 1.5-3.1 2.8-5.5 2.8-2.8 0-4.4-1.7-3.2-5.9h23.7c0.6-0.9 1-2 1.3-2.9 4-11.1-1.1-18-11.7-18-10.7 0-20.7 7-24.8 18.4-4.1 11.5 1 18.4 11.6 18.4 9 0 17.7-5.5 21.9-12.8zm5.9-5.6c-4.1 11.5 0.1 18.4 8.7 18.4 5 0 9.5-2.2 12.5-5.4l-1.8 5h12.5l12.9-35.9h-12.6l-1.8 5c-0.6-3.2-3.4-5.5-8.5-5.5-8.5 0-17.8 7-21.9 18.4zm25.8 0c-1.7 4.9-5.6 7.5-9.2 7.5-3.5 0-5.6-2.7-3.8-7.5 1.7-4.8 5.6-7.4 9.2-7.4 3.5 0 5.5 2.6 3.8 7.4zm20.2 4.4c-3.7 10.3 0.9 13.6 8.8 13.6h5.5l3.9-10.7h-3.7c-2.1 0-2.7-0.8-2-2.7l4.3-12.1h6.5l3.8-10.4h-6.5l3.1-8.7h-12.6l-3.1 8.7h-4.4l-3.8 10.4h4.4zm45.7-12.8c2.9 0 4.8 1.8 3.5 5.3h-11.1c1.7-3.5 4.5-5.3 7.6-5.3zm12.4 14h-13.4c-1.2 1.5-3 2.9-5.5 2.9-2.7 0-4.4-1.7-3.2-5.9h23.8c0.5-1 0.9-2 1.3-3 3.9-11-1.1-17.9-11.7-17.9-10.8 0-20.8 7-24.9 18.4-4.1 11.4 1 18.4 11.6 18.4 9.1 0 17.7-5.5 22-12.9z"/>
	<path id="Your" class="s0" aria-label="Your"  d="m352 56.7l-5.1 14.3h12.6l5.1-14.3 27-30.8h-14.2l-14.2 17.5-1.7-17.5h-14.3zm70.2-6.9c1.7-9.2-3.8-15.1-13.2-15.1-12.9 0-24.1 9.2-26.4 21.7-1.6 9.2 3.7 15.1 13.2 15.1 12.8 0 24.1-9.1 26.4-21.7zm-26.4 5.4c0.8-4.7 4.5-9.7 9.3-9.7 2.8 0 4.6 1.7 3.9 5.5-0.8 4.6-4.6 9.6-9.3 9.6-2.9 0-4.6-1.7-3.9-5.4zm73.7-20.1h-12.6l-7 19.6c-1.4 3.8-4.5 6.3-8.2 6.3-3.6 0-5.1-2.5-3.6-6.6l6.9-19.3h-12.5l-7.5 20.9c-3.4 9.4-0.3 15.3 8 15.3 5.1 0 9.7-2.3 12.9-5.4l-1.9 5.1h12.6zm6.8 35.9l5.9-16.2c2-5.1 5.4-6.6 10.4-6.6h3.5l4.7-13.4c-4.8 0-9.8 2.8-13.9 6.8l2.3-6.5h-12.5l-13 35.9z"/>
	<path id="Awesome" class="s0" aria-label="Awesome"  d="m90.4 231h13.2l-0.2-45.1h-14.5l-32.6 45.1h13.2l5-7.4h16zm0.5-16.9h-9.7l10.1-14.6zm22.5 16.9h14.1l12.9-21.8-2.8 21.8h14.1l22-35.9h-11.7l-12.6 23.9 3-23.9h-13.3l-13.9 23.8 4.5-23.8h-12.5zm76.6-26.5c2.9 0 4.8 1.8 3.5 5.4h-11.1c1.7-3.6 4.4-5.4 7.6-5.4zm12.3 14.1h-13.3c-1.2 1.4-3 2.8-5.5 2.8-2.7 0-4.4-1.7-3.2-5.9h23.8c0.5-1 0.9-2 1.3-3 3.9-11-1.1-17.9-11.8-17.9-10.7 0-20.7 7-24.8 18.4-4.1 11.5 1 18.4 11.6 18.4 9 0 17.7-5.5 21.9-12.8zm35.7 1.4c2.1-11-16-9.7-15.2-14.2 0.2-1.4 1.9-2.3 3.8-2.3 2.8 0 4 1.4 3.5 3.7h11.2c1.7-7.1-2.9-12.6-13-12.6-9.2 0-16.1 4.8-17.2 11.2-2.2 11.8 15.9 9.9 15.1 14.5-0.3 1.4-2.1 2.3-4.2 2.3-2.7 0-4.2-1.3-3.6-3.7h-12.1c-2.6 7.5 3.3 12.5 13.1 12.5 9.5 0 17.3-4.1 18.6-11.4zm45.2-10.3c1.7-9.1-3.8-15.1-13.2-15.1-12.9 0-24.1 9.3-26.4 21.8-1.6 9.1 3.7 15 13.2 15 12.8 0 24.1-9.1 26.4-21.7zm-26.4 5.5c0.8-4.7 4.5-9.8 9.3-9.8 2.8 0 4.6 1.8 3.9 5.5-0.8 4.7-4.6 9.7-9.3 9.7-2.9 0-4.6-1.7-3.9-5.4zm73 15.8h12.5l7.5-20.9c3.4-9.5 0-15.3-9-15.3-5.4 0-10.6 2.9-14.4 6.5-0.8-4.2-4.2-6.5-9.5-6.5-4.9 0-9.2 2.1-12.2 4.9l1.6-4.6h-12.5l-12.9 35.9h12.6l7-19.6c1.3-3.6 4.4-5.8 8.1-5.8 3.6 0 5.1 2.2 3.7 6.1l-6.9 19.3h12.5l7.2-20.1c1.5-3.4 4.5-5.3 7.9-5.3 3.5 0 5.1 2.2 3.7 6.1zm45-26.4c2.8 0 4.8 1.7 3.5 5.3h-11.2c1.8-3.5 4.5-5.3 7.7-5.3zm12.3 14h-13.3c-1.2 1.5-3.1 2.8-5.5 2.8-2.8 0-4.4-1.6-3.2-5.9h23.7c0.6-0.9 1-2 1.3-2.9 4-11.1-1.1-17.9-11.7-17.9-10.7 0-20.7 6.9-24.8 18.3-4.1 11.5 1 18.5 11.6 18.5 9 0 17.7-5.5 21.9-12.9z"/>
	<path id="Website" class="s0" aria-label="Website"  d="m471.4 231h15.4l16.3-27.7-3.7 27.7h15.5l27.2-45.1h-13.6l-16.3 30.7 4.2-30.7h-13.8l-18.1 30.8 5.7-30.8h-13.5zm85.4-26.5c2.8 0 4.8 1.8 3.5 5.4h-11.2c1.8-3.6 4.5-5.4 7.7-5.4zm12.3 14.1h-13.3c-1.2 1.4-3.1 2.8-5.5 2.8-2.7 0-4.4-1.7-3.2-5.9h23.7c0.6-1 1-2 1.3-3 4-11-1.1-17.9-11.7-17.9-10.7 0-20.7 7-24.8 18.4-4.1 11.5 1 18.4 11.6 18.4 9 0 17.7-5.5 21.9-12.8zm25.1-18.5l6-16.5h-12.6l-17 47.4h12.6l1.8-5c0.7 3.3 3.5 5.4 8.5 5.4 8.5 0 17.8-6.9 21.9-18.4 4.1-11.5-0.1-18.4-8.7-18.4-5 0-9.4 2.2-12.5 5.5zm8.4 12.9c-1.7 4.8-5.6 7.5-9.2 7.5-3.5 0-5.5-2.6-3.8-7.5 1.7-4.8 5.7-7.4 9.2-7.4 3.5 0 5.6 2.5 3.8 7.4zm45.7 7c2.1-11-16-9.7-15.2-14.2 0.2-1.4 1.9-2.3 3.8-2.3 2.7 0 4 1.4 3.5 3.7h11.2c1.7-7.1-2.9-12.6-13-12.6-9.2 0-16.1 4.8-17.2 11.2-2.2 11.8 15.9 9.9 15.1 14.5-0.3 1.4-2.1 2.3-4.2 2.3-2.7 0-4.2-1.3-3.6-3.7h-12.1c-2.6 7.5 3.3 12.5 13.1 12.5 9.5 0 17.3-4.1 18.6-11.4zm2.1 11h12.7l12.8-35.9h-12.5zm20.4-39.3c4.4 0 8.4-2.8 9.6-6.4 1.3-3.6-0.6-6.5-5-6.5-4.5 0-8.3 2.9-9.6 6.5-1.3 3.6 0.6 6.4 5 6.4zm6.2 25.6c-3.7 10.3 0.9 13.7 8.8 13.7h5.5l3.9-10.7h-3.6c-2.2 0-2.8-0.8-2.1-2.8l4.4-12h6.4l3.8-10.4h-6.5l3.1-8.7h-12.6l-3.1 8.7h-4.4l-3.8 10.4h4.5zm45.6-12.8c2.9 0 4.8 1.7 3.5 5.3h-11.1c1.7-3.5 4.5-5.3 7.6-5.3zm12.4 14h-13.3c-1.3 1.5-3.1 2.8-5.5 2.8-2.8 0-4.5-1.6-3.3-5.9h23.8c0.5-0.9 0.9-1.9 1.3-2.9 3.9-11.1-1.1-17.9-11.7-17.9-10.8 0-20.8 7-24.9 18.4-4 11.4 1 18.4 11.6 18.4 9.1 0 17.8-5.5 22-12.9z"/>
</svg>