<svg version="1.2" xmlns="http://www.w3.org/2000/svg" viewBox="0 0 252 311" width="252" height="311">
	<title>topmessage</title>
	<style>
		.s0 { fill: #444444 } 
	</style>
	<path id="Create" class="s0" aria-label="Create"  d="m44.2 18c-3.6 10.1 0.5 17.2 10.6 17.2 8.5 0 16.4-4.9 20.9-12.5h-10.2c-2.1 2.5-4.9 3.9-7.6 3.9-4.4 0-6-3.4-4.1-8.6 1.8-5.2 5.8-8.5 10.1-8.5 2.8 0 4.6 1.4 4.9 3.9h10.1c1.1-7.7-3.2-12.6-11.7-12.6-10.2 0-19.4 7.1-23 17.2zm40.9 17l4.3-12.1c1.6-3.9 4.1-5 7.9-5h2.6l3.6-10.1c-3.6 0-7.4 2.1-10.5 5.2l1.7-4.9h-9.4l-9.7 26.9zm31.2-19.8c2.2 0 3.6 1.3 2.7 4h-8.4c1.3-2.7 3.4-4 5.7-4zm9.3 10.5h-10c-0.9 1.1-2.3 2.1-4.1 2.1-2.1 0-3.3-1.2-2.4-4.4h17.8c0.4-0.7 0.7-1.5 1-2.2 2.9-8.3-0.9-13.5-8.8-13.5-8.1 0-15.6 5.3-18.7 13.8-3 8.6 0.8 13.8 8.8 13.8 6.7 0 13.2-4.1 16.4-9.6zm4.4-4.2c-3 8.6 0.1 13.8 6.5 13.8 3.8 0 7.2-1.6 9.4-4l-1.4 3.7h9.5l9.6-26.9h-9.4l-1.4 3.7c-0.4-2.4-2.5-4.1-6.4-4.1-6.3 0-13.3 5.2-16.4 13.8zm19.4 0c-1.3 3.7-4.2 5.6-6.9 5.6-2.7 0-4.2-2-2.9-5.6 1.3-3.6 4.2-5.6 6.9-5.6 2.7 0 4.2 2 2.9 5.6zm15.1 3.3c-2.7 7.7 0.7 10.2 6.6 10.2h4.2l2.9-8h-2.8c-1.6 0-2-0.6-1.5-2.1l3.3-9h4.8l2.8-7.8h-4.8l2.3-6.6h-9.4l-2.4 6.6h-3.3l-2.8 7.8h3.3zm34.2-9.6c2.2 0 3.7 1.3 2.7 4h-8.4c1.3-2.7 3.4-4 5.7-4zm9.3 10.5h-10c-0.9 1.1-2.3 2.1-4.1 2.1-2.1 0-3.3-1.2-2.4-4.4h17.8c0.4-0.7 0.7-1.5 1-2.2 2.9-8.3-0.8-13.4-8.8-13.4-8.1 0-15.6 5.2-18.6 13.7-3.1 8.6 0.7 13.9 8.7 13.9 6.7 0 13.3-4.2 16.4-9.7z"/>
	<path id="Your" class="s0" aria-label="Your"  d="m72.5 113.2l-3.8 10.8h9.4l3.9-10.8 20.2-23h-10.6l-10.7 13.1-1.2-13.1h-10.8zm52.6-5.2c1.3-6.9-2.8-11.4-9.8-11.4-9.7 0-18.1 7-19.8 16.4-1.3 6.8 2.7 11.2 9.8 11.2 9.6 0 18.1-6.8 19.8-16.2zm-19.8 4.1c0.7-3.5 3.4-7.3 7-7.3 2.1 0 3.5 1.3 3 4.1-0.6 3.4-3.5 7.2-7.1 7.2-2.1 0-3.4-1.3-2.9-4zm55.3-15.1h-9.4l-5.3 14.7c-1 2.9-3.4 4.7-6.1 4.7-2.7 0-3.9-1.8-2.7-5l5.2-14.4h-9.4l-5.6 15.6c-2.6 7.1-0.3 11.6 6 11.6 3.8 0 7.2-1.8 9.6-4.1l-1.4 3.8h9.4zm5.2 26.9l4.3-12.1c1.6-3.8 4.1-5 7.9-5h2.6l3.6-10c-3.6 0-7.4 2.1-10.5 5.1l1.7-4.9h-9.4l-9.7 26.9z"/>
	<path id="Awesome" class="s0" aria-label="Awesome"  d="m25.5 214h10l-0.2-33.8h-10.9l-24.4 33.8h9.9l3.8-5.5h12zm0.3-12.7h-7.2l7.5-11zm16.9 12.7h10.5l9.8-16.3-2.1 16.3h10.5l16.5-26.9h-8.8l-9.5 17.9 2.3-17.9h-10l-10.4 17.8 3.4-17.8h-9.4zm57.5-19.9c2.1 0 3.6 1.3 2.6 4h-8.4c1.3-2.6 3.4-4 5.8-4zm9.2 10.5h-9.9c-1 1.2-2.4 2.2-4.2 2.2-2 0-3.3-1.3-2.4-4.5h17.8c0.4-0.7 0.7-1.4 1-2.2 2.9-8.3-0.8-13.4-8.8-13.4-8.1 0-15.5 5.2-18.6 13.8-3.1 8.6 0.7 13.8 8.7 13.8 6.8 0 13.3-4.1 16.4-9.7zm26.8 1.2c1.5-8.4-12.1-7.3-11.4-10.8 0.2-1 1.4-1.7 2.8-1.7 2.1 0 3 1.1 2.6 2.8h8.5c1.2-5.3-2.2-9.4-9.8-9.4-6.9 0-12.1 3.6-12.9 8.4-1.6 8.8 11.9 7.4 11.3 10.8-0.2 1.1-1.6 1.8-3.1 1.8-2 0-3.1-1-2.7-2.8h-9.1c-1.9 5.6 2.5 9.4 9.8 9.4 7.2 0 13-3.1 14-8.5zm33.9-7.8c1.2-6.8-2.9-11.3-9.9-11.3-9.7 0-18.1 7-19.8 16.3-1.2 6.9 2.8 11.3 9.9 11.3 9.6 0 18-6.8 19.8-16.3zm-19.8 4.1c0.6-3.5 3.4-7.3 7-7.3 2 0 3.4 1.3 2.9 4.1-0.6 3.5-3.5 7.3-7 7.3-2.1 0-3.4-1.3-2.9-4.1zm54.7 11.9h9.4l5.6-15.7c2.6-7.1 0.1-11.5-6.8-11.5-3.9 0-7.9 2.2-10.7 4.9-0.6-3.1-3.2-4.9-7.2-4.9-3.6 0-6.9 1.6-9.1 3.7l1.2-3.5h-9.4l-9.7 27h9.5l5.2-14.7c1-2.7 3.3-4.3 6.1-4.3 2.7 0 3.8 1.6 2.8 4.5l-5.2 14.5h9.4l5.4-15.1c1.1-2.6 3.3-3.9 5.9-3.9 2.7 0 3.8 1.6 2.8 4.5zm33.7-19.8c2.2 0 3.6 1.3 2.6 4h-8.3c1.3-2.7 3.4-4 5.7-4zm9.3 10.5h-10c-0.9 1.1-2.3 2.1-4.1 2.1-2.1 0-3.4-1.2-2.4-4.4h17.8c0.4-0.7 0.7-1.5 0.9-2.2 3-8.3-0.8-13.5-8.7-13.5-8.1 0-15.6 5.3-18.7 13.8-3 8.6 0.8 13.8 8.7 13.8 6.8 0 13.3-4.1 16.5-9.6z"/>
	<path id="Website" class="s0" aria-label="Website"  d="m25.1 310h11.5l12.3-20.8-2.8 20.8h11.5l20.5-33.8h-10.2l-12.2 23 3.1-23h-10.4l-13.5 23.1 4.3-23.1h-10.2zm64-19.9c2.2 0 3.6 1.3 2.7 4h-8.4c1.3-2.6 3.4-4 5.7-4zm9.3 10.5h-10c-0.9 1.2-2.3 2.2-4.1 2.2-2.1 0-3.3-1.3-2.4-4.5h17.8c0.4-0.7 0.7-1.4 1-2.2 2.9-8.3-0.8-13.4-8.8-13.4-8.1 0-15.6 5.2-18.6 13.8-3.1 8.6 0.7 13.8 8.7 13.8 6.7 0 13.3-4.1 16.4-9.7zm18.9-13.8l4.4-12.4h-9.4l-12.8 35.6h9.5l1.3-3.8c0.5 2.5 2.6 4.1 6.4 4.1 6.4 0 13.4-5.2 16.5-13.8 3-8.6-0.2-13.8-6.6-13.8-3.7 0-7.1 1.6-9.3 4.1zm6.3 9.7c-1.3 3.6-4.3 5.6-7 5.6-2.6 0-4.1-2-2.8-5.6 1.2-3.6 4.2-5.6 6.9-5.6 2.6 0 4.2 1.9 2.9 5.6zm34.2 5.3c1.5-8.4-12-7.3-11.4-10.8 0.2-1 1.4-1.7 2.8-1.7 2.1 0 3 1.1 2.7 2.8h8.4c1.3-5.3-2.2-9.4-9.8-9.4-6.9 0-12 3.6-12.9 8.4-1.6 8.8 11.9 7.4 11.3 10.8-0.2 1.1-1.5 1.8-3.1 1.8-2 0-3.1-1-2.7-2.8h-9.1c-1.9 5.6 2.5 9.4 9.8 9.4 7.2 0 13-3.1 14-8.5zm1.6 8.2h9.5l9.6-27h-9.4zm15.3-29.4c3.4 0 6.3-2.1 7.3-4.8 0.9-2.7-0.5-4.9-3.8-4.9-3.4 0-6.3 2.2-7.2 4.9-1 2.7 0.4 4.8 3.7 4.8zm4.7 19.2c-2.8 7.7 0.6 10.2 6.6 10.2h4.1l2.9-8h-2.7c-1.6 0-2.1-0.6-1.6-2l3.3-9.1h4.9l2.8-7.8h-4.9l2.4-6.5h-9.5l-2.3 6.5h-3.3l-2.8 7.8h3.3zm34.2-9.6c2.2 0 3.6 1.3 2.6 4h-8.3c1.3-2.6 3.4-4 5.7-4zm9.3 10.5h-10c-0.9 1.1-2.3 2.2-4.1 2.2-2.1 0-3.4-1.3-2.4-4.5h17.8c0.4-0.7 0.7-1.5 0.9-2.2 3-8.3-0.8-13.4-8.7-13.4-8.1 0-15.6 5.2-18.7 13.8-3 8.6 0.8 13.8 8.7 13.8 6.8 0 13.3-4.1 16.5-9.7z"/>
</svg>